<svg data-v-fde0c5aa="" xmlns="http://www.w3.org/2000/svg" viewBox="0 0 300 300" class="iconLeft"><!----><defs data-v-fde0c5aa=""><!----></defs><rect data-v-fde0c5aa="" fill="transparent" x="0" y="0" width="300px" height="300px" class="logo-background-square"></rect><defs data-v-fde0c5aa=""><!----></defs><g data-v-fde0c5aa="" id="873cc419-62cd-4843-aabe-4decd3d0f1b8" fill="#000000" transform="matrix(1.7635445594787598,0,0,1.7635445594787598,76.73244616574917,139.66562834514394)"><path d="M2.52 9.80L2.52 4.55L1.19 4.55L1.19 3.85L2.52 3.85L2.52 3.85Q2.52 1.08 4.58 1.08L4.58 1.08L4.58 1.08Q5.25 1.08 6.06 1.32L6.06 1.32L5.89 2.03L5.89 2.03Q5.11 1.81 4.61 1.81L4.61 1.81L4.61 1.81Q3.88 1.81 3.57 2.30L3.57 2.30L3.57 2.30Q3.26 2.79 3.26 3.85L3.26 3.85L5.80 3.85L5.80 4.55L3.26 4.55L3.26 9.80L5.82 9.80L5.82 10.50L1.13 10.50L1.13 9.80L2.52 9.80ZM10.05 9.90L10.05 9.90L10.05 9.90Q10.57 9.90 11.18 9.57L11.18 9.57L11.18 9.57Q11.79 9.24 12.07 8.96L12.07 8.96L12.07 7.29L12.07 7.29Q11.14 7.22 10.30 7.22L10.30 7.22L10.30 7.22Q9.46 7.22 9.04 7.58L9.04 7.58L9.04 7.58Q8.62 7.94 8.62 8.54L8.62 8.54L8.62 8.54Q8.62 9.90 10.05 9.90ZM10.04 10.63L10.04 10.63L10.04 10.63Q9.02 10.63 8.43 10.10L8.43 10.10L8.43 10.10Q7.84 9.58 7.84 8.61L7.84 8.61L7.84 8.61Q7.84 7.64 8.48 7.11L8.48 7.11L8.48 7.11Q9.13 6.57 10.19 6.57L10.19 6.57L10.19 6.57Q11.26 6.57 12.07 6.65L12.07 6.65L12.07 6.65Q12.07 5.40 11.76 4.95L11.76 4.95L11.76 4.95Q11.45 4.49 10.51 4.49L10.51 4.49L10.51 4.49Q9.58 4.49 8.30 4.94L8.30 4.94L8.09 4.24L8.09 4.24Q9.39 3.77 10.44 3.77L10.44 3.77L10.44 3.77Q11.83 3.77 12.32 4.38L12.32 4.38L12.32 4.38Q12.81 5.00 12.81 6.54L12.81 6.54L12.81 9.48L12.92 10.54L12.21 10.61L12.07 9.77L12.07 9.77Q11.75 10.05 11.16 10.34L11.16 10.34L11.16 10.34Q10.57 10.63 10.04 10.63ZM15.09 10.18L15.09 10.18L15.27 9.45L15.27 9.45Q16.66 9.91 17.42 9.91L17.42 9.91L17.42 9.91Q18.17 9.91 18.59 9.58L18.59 9.58L18.59 9.58Q19.00 9.25 19.00 8.71L19.00 8.71L19.00 8.71Q19.00 8.16 18.67 7.90L18.67 7.90L18.67 7.90Q18.34 7.64 17.30 7.41L17.30 7.41L17.30 7.41Q16.27 7.17 15.75 6.72L15.75 6.72L15.75 6.72Q15.23 6.30 15.23 5.46L15.23 5.46L15.23 5.46Q15.23 4.62 15.87 4.18L15.87 4.18L15.87 4.18Q16.51 3.74 17.51 3.74L17.51 3.74L17.51 3.74Q18.52 3.74 19.70 4.19L19.70 4.19L19.50 4.84L19.50 4.84Q18.31 4.45 17.58 4.45L17.58 4.45L17.58 4.45Q16.86 4.45 16.44 4.70L16.44 4.70L16.44 4.70Q16.02 4.98 16.02 5.46L16.02 5.46L16.02 5.46Q16.02 5.94 16.39 6.20L16.39 6.20L16.39 6.20Q16.76 6.47 17.82 6.73L17.82 6.73L17.82 6.73Q18.89 7 19.33 7.41L19.33 7.41L19.33 7.41Q19.78 7.83 19.78 8.71L19.78 8.71L19.78 8.71Q19.78 9.59 19.18 10.11L19.18 10.11L19.18 10.11Q18.59 10.63 17.50 10.63L17.50 10.63L17.50 10.63Q16.41 10.63 15.09 10.18ZM23.24 7.95L23.24 4.65L22.06 4.65L22.06 3.95L23.24 3.95L23.24 2.34L23.98 2.20L23.98 3.95L26.64 3.95L26.64 4.65L23.98 4.65L23.98 7.92L23.98 7.92Q23.98 9.02 24.20 9.46L24.20 9.46L24.20 9.46Q24.42 9.91 25.09 9.91L25.09 9.91L25.09 9.91Q25.76 9.91 26.57 9.65L26.57 9.65L26.74 10.35L26.74 10.35Q25.93 10.64 25.23 10.64L25.23 10.64L25.23 10.64Q24.53 10.64 24.13 10.46L24.13 10.46L24.13 10.46Q23.73 10.28 23.54 9.88L23.54 9.88L23.54 9.88Q23.35 9.48 23.30 9.06L23.30 9.06L23.30 9.06Q23.24 8.64 23.24 7.95L23.24 7.95ZM31.09 2.04L28.67 2.04L28.67 1.33L34.30 1.33L34.30 2.04L31.86 2.04L31.86 10.50L31.09 10.50L31.09 2.04ZM35.94 7.18L35.94 7.18L35.94 7.18Q35.94 5.57 36.60 4.67L36.60 4.67L36.60 4.67Q37.27 3.77 38.54 3.77L38.54 3.77L38.54 3.77Q39.82 3.77 40.44 4.61L40.44 4.61L40.44 4.61Q41.06 5.45 41.06 6.85L41.06 6.85L41.02 7.55L36.74 7.55L36.74 7.55Q36.81 8.60 37.30 9.25L37.30 9.25L37.30 9.25Q37.79 9.90 38.65 9.90L38.65 9.90L38.65 9.90Q39.51 9.90 40.67 9.49L40.67 9.49L40.88 10.19L40.88 10.19Q39.75 10.63 38.75 10.63L38.75 10.63L38.75 10.63Q37.38 10.63 36.66 9.71L36.66 9.71L36.66 9.71Q35.94 8.79 35.94 7.18ZM38.60 4.48L38.60 4.48L38.60 4.48Q36.83 4.48 36.74 6.85L36.74 6.85L40.26 6.85L40.26 6.85Q40.26 4.48 38.60 4.48ZM45.02 7.13L42.84 3.85L43.81 3.85L45.50 6.59L47.18 3.85L48.12 3.85L46.02 7.13L48.24 10.50L47.29 10.50L45.50 7.66L43.72 10.50L42.77 10.50L45.02 7.13ZM51.24 7.95L51.24 4.65L50.06 4.65L50.06 3.95L51.24 3.95L51.24 2.34L51.98 2.20L51.98 3.95L54.64 3.95L54.64 4.65L51.98 4.65L51.98 7.92L51.98 7.92Q51.98 9.02 52.20 9.46L52.20 9.46L52.20 9.46Q52.42 9.91 53.09 9.91L53.09 9.91L53.09 9.91Q53.76 9.91 54.57 9.65L54.57 9.65L54.74 10.35L54.74 10.35Q53.93 10.64 53.23 10.64L53.23 10.64L53.23 10.64Q52.53 10.64 52.13 10.46L52.13 10.46L52.13 10.46Q51.73 10.28 51.54 9.88L51.54 9.88L51.54 9.88Q51.35 9.48 51.30 9.06L51.30 9.06L51.30 9.06Q51.24 8.64 51.24 7.95L51.24 7.95ZM65.04 9.79L68.87 9.79L68.87 10.50L64.27 10.50L64.27 1.33L65.04 1.33L65.04 9.79ZM73.05 9.90L73.05 9.90L73.05 9.90Q73.57 9.90 74.18 9.57L74.18 9.57L74.18 9.57Q74.79 9.24 75.07 8.96L75.07 8.96L75.07 7.29L75.07 7.29Q74.14 7.22 73.30 7.22L73.30 7.22L73.30 7.22Q72.46 7.22 72.04 7.58L72.04 7.58L72.04 7.58Q71.62 7.94 71.62 8.54L71.62 8.54L71.62 8.54Q71.62 9.90 73.05 9.90ZM73.04 10.63L73.04 10.63L73.04 10.63Q72.02 10.63 71.43 10.10L71.43 10.10L71.43 10.10Q70.84 9.58 70.84 8.61L70.84 8.61L70.84 8.61Q70.84 7.64 71.48 7.11L71.48 7.11L71.48 7.11Q72.13 6.57 73.19 6.57L73.19 6.57L73.19 6.57Q74.26 6.57 75.07 6.65L75.07 6.65L75.07 6.65Q75.07 5.40 74.76 4.95L74.76 4.95L74.76 4.95Q74.45 4.49 73.51 4.49L73.51 4.49L73.51 4.49Q72.58 4.49 71.30 4.94L71.30 4.94L71.09 4.24L71.09 4.24Q72.39 3.77 73.44 3.77L73.44 3.77L73.44 3.77Q74.83 3.77 75.32 4.38L75.32 4.38L75.32 4.38Q75.81 5.00 75.81 6.54L75.81 6.54L75.81 9.48L75.92 10.54L75.21 10.61L75.07 9.77L75.07 9.77Q74.75 10.05 74.16 10.34L74.16 10.34L74.16 10.34Q73.57 10.63 73.04 10.63ZM77.49 3.85L78.19 3.85L78.23 4.27L78.23 4.27Q78.93 3.77 79.31 3.77L79.31 3.77L79.31 3.77Q80.23 3.77 80.58 4.37L80.58 4.37L80.58 4.37Q81.37 3.77 81.96 3.77L81.96 3.77L81.96 3.77Q82.87 3.77 83.20 4.33L83.20 4.33L83.20 4.33Q83.54 4.89 83.54 6.05L83.54 6.05L83.54 10.50L82.80 10.50L82.80 6.05L82.80 6.05Q82.80 5.25 82.63 4.87L82.63 4.87L82.63 4.87Q82.46 4.48 81.98 4.48L81.98 4.48L81.98 4.48Q81.51 4.48 80.81 4.93L80.81 4.93L80.81 4.93Q80.89 5.40 80.89 6.05L80.89 6.05L80.89 8.37L80.15 8.37L80.15 6.05L80.15 6.05Q80.15 5.25 79.98 4.87L79.98 4.87L79.98 4.87Q79.80 4.48 79.32 4.48L79.32 4.48L79.32 4.48Q78.85 4.48 78.23 4.93L78.23 4.93L78.23 10.50L77.49 10.50L77.49 3.85ZM85.78 10.50L85.08 10.50L85.08 1.20L85.82 1.20L85.82 4.49L85.82 4.49Q86.87 3.77 87.72 3.77L87.72 3.77L87.72 3.77Q88.98 3.77 89.67 4.63L89.67 4.63L89.67 4.63Q90.36 5.49 90.36 7.08L90.36 7.08L90.36 7.08Q90.36 8.68 89.59 9.65L89.59 9.65L89.59 9.65Q88.82 10.63 87.49 10.63L87.49 10.63L87.49 10.63Q86.67 10.63 85.81 10.22L85.81 10.22L85.78 10.50ZM89.56 7.10L89.56 7.10L89.56 7.10Q89.56 5.87 89.08 5.18L89.08 5.18L89.08 5.18Q88.59 4.49 87.68 4.49L87.68 4.49L87.68 4.49Q86.77 4.49 85.82 5.29L85.82 5.29L85.82 9.49L85.82 9.49Q86.11 9.63 86.63 9.77L86.63 9.77L86.63 9.77Q87.14 9.90 87.46 9.90L87.46 9.90L87.46 9.90Q88.44 9.90 89.00 9.11L89.00 9.11L89.00 9.11Q89.56 8.33 89.56 7.10ZM96.25 1.20L96.99 1.20L96.99 9.34L97.13 10.56L96.42 10.64L96.28 9.90L96.28 9.90Q95.23 10.63 94.35 10.63L94.35 10.63L94.35 10.63Q93.10 10.63 92.41 9.70L92.41 9.70L92.41 9.70Q91.71 8.78 91.71 7.19L91.71 7.19L91.71 7.19Q91.71 5.60 92.48 4.68L92.48 4.68L92.48 4.68Q93.25 3.77 94.58 3.77L94.58 3.77L94.58 3.77Q95.37 3.77 96.25 4.14L96.25 4.14L96.25 1.20ZM92.51 7.17L92.51 7.17L92.51 7.17Q92.51 8.40 93.00 9.15L93.00 9.15L93.00 9.15Q93.48 9.90 94.39 9.90L94.39 9.90L94.39 9.90Q95.30 9.90 96.25 9.10L96.25 9.10L96.25 4.90L96.25 4.90Q95.96 4.76 95.44 4.63L95.44 4.63L95.44 4.63Q94.93 4.49 94.61 4.49L94.61 4.49L94.61 4.49Q93.62 4.49 93.06 5.21L93.06 5.21L93.06 5.21Q92.51 5.94 92.51 7.17ZM101.05 9.90L101.05 9.90L101.05 9.90Q101.57 9.90 102.18 9.57L102.18 9.57L102.18 9.57Q102.79 9.24 103.07 8.96L103.07 8.96L103.07 7.29L103.07 7.29Q102.14 7.22 101.30 7.22L101.30 7.22L101.30 7.22Q100.46 7.22 100.04 7.58L100.04 7.58L100.04 7.58Q99.62 7.94 99.62 8.54L99.62 8.54L99.62 8.54Q99.62 9.90 101.05 9.90ZM101.04 10.63L101.04 10.63L101.04 10.63Q100.02 10.63 99.43 10.10L99.43 10.10L99.43 10.10Q98.84 9.58 98.84 8.61L98.84 8.61L98.84 8.61Q98.84 7.64 99.48 7.11L99.48 7.11L99.48 7.11Q100.13 6.57 101.19 6.57L101.19 6.57L101.19 6.57Q102.26 6.57 103.07 6.65L103.07 6.65L103.07 6.65Q103.07 5.40 102.76 4.95L102.76 4.95L102.76 4.95Q102.45 4.49 101.51 4.49L101.51 4.49L101.51 4.49Q100.58 4.49 99.30 4.94L99.30 4.94L99.09 4.24L99.09 4.24Q100.39 3.77 101.44 3.77L101.44 3.77L101.44 3.77Q102.83 3.77 103.32 4.38L103.32 4.38L103.32 4.38Q103.81 5.00 103.81 6.54L103.81 6.54L103.81 9.48L103.92 10.54L103.21 10.61L103.07 9.77L103.07 9.77Q102.75 10.05 102.16 10.34L102.16 10.34L102.16 10.34Q101.57 10.63 101.04 10.63Z"></path></g><defs data-v-fde0c5aa=""><linearGradient data-v-fde0c5aa="" gradientTransform="rotate(25)" id="1888cfb4-dc08-4657-966f-b5ec14e98e37" x1="0%" y1="0%" x2="100%" y2="0%"><stop data-v-fde0c5aa="" offset="0%" stop-color="#B4373D" stop-opacity="1"></stop><stop data-v-fde0c5aa="" offset="100%" stop-color="#B23ACB" stop-opacity="1"></stop></linearGradient></defs><g data-v-fde0c5aa="" id="b3e5e8a9-ef51-4425-bea7-19508eea7627" stroke="url(#1888cfb4-dc08-4657-966f-b5ec14e98e37)" fill="none" transform="matrix(0.43602120876312256,0,0,0.43602120876312256,40,136.91936363032596)"><g><path d="M49 24a6 6 0 1 1 0 12 6 6 0 0 1 0-12z" stroke-width="2"></path><path d="M50 29a1 1 0 1 1 0 2 1 1 0 0 1 0-2M53 27a1 1 0 1 1 0 2 1 1 0 0 1 0-2M53 31a1 1 0 1 1 0 2 1 1 0 0 1 0-2M50 25a1 1 0 1 1 0 2 1 1 0 0 1 0-2M50 33a1 1 0 1 1 0 2 1 1 0 0 1 0-2"></path><path d="M6 23c0 1.65 1.35 3 3 3h9c2.2 0 4 1.8 4 4s-1.8 4-4 4h-6c-1.65 0-3 1.35-3 3s1.35 3 3 3h37c5.523 0 10-4.477 10-10s-4.477-10-10-10H9c-1.65 0-3 1.35-3 3z" stroke="#000" stroke-width="2"></path><path d="M32 29a1 1 0 1 1 0 2 1 1 0 0 1 0-2"></path><path d="M28 30h-2M39 30h-3M32 25h-8M38 25h-2M30 35h8M24 35h2" stroke="#000" stroke-width="2" stroke-linecap="round"></path><path d="M52 6a1 1 0 1 1-2 0 1 1 0 0 1 2 0M34 49a1 1 0 1 1-2 0 1 1 0 0 1 2 0M21 12a1 1 0 1 1-2 0 1 1 0 0 1 2 0M2 53a1 1 0 1 1-2 0 1 1 0 0 1 2 0"></path><path stroke="#000" stroke-width="2" stroke-linecap="round" d="M6 9L3 6l3-3 3 3zM6 3V1M9 6h2M6 9v2M3 6H1"></path><path d="M59 55c-2.211 0-4-1.789-4-4 0 2.211-1.789 4-4 4 2.211 0 4 1.789 4 4 0-2.211 1.789-4 4-4z" stroke="#000" stroke-width="2" stroke-linecap="round" stroke-linejoin="round"></path></g></g><!----></svg>